<svg width="364" height="234" viewBox="0 0 364 234" fill="none" xmlns="http://www.w3.org/2000/svg">
<g filter="url(#filter0_b_3401_189)">
<rect x="2" y="2" width="360" height="230" rx="15.1928" fill="url(#paint0_linear_3401_189)"/>
<rect x="1.36697" y="1.36697" width="361.266" height="231.266" rx="15.8259" stroke="url(#paint1_radial_3401_189)" stroke-width="1.26607"/>
<rect x="1.36697" y="1.36697" width="361.266" height="231.266" rx="15.8259" stroke="url(#paint2_linear_3401_189)" stroke-opacity="0.4" stroke-width="1.26607"/>
<rect x="1.36697" y="1.36697" width="361.266" height="231.266" rx="15.8259" stroke="url(#paint3_linear_3401_189)" stroke-width="1.26607"/>
</g>
<mask id="mask0_3401_189" style="mask-type:alpha" maskUnits="userSpaceOnUse" x="2" y="2" width="360" height="230">
<rect x="2" y="2" width="360" height="230" rx="15.4011" fill="#8A05BE"/>
</mask>
<g mask="url(#mask0_3401_189)">
<g filter="url(#filter1_f_3401_189)">
<path d="M478.834 -42.4323C501.197 3.72076 441.794 79.4283 346.154 126.665C250.514 173.902 154.854 174.781 132.491 128.628C110.128 82.4745 169.532 6.767 265.171 -40.4699C360.811 -87.7068 456.471 -88.5854 478.834 -42.4323Z" fill="#8A05BE"/>
</g>
<g filter="url(#filter2_f_3401_189)">
<path d="M222.529 -127.568C266.137 -94.193 247.635 4.34108 181.204 92.5136C114.773 180.686 25.568 225.108 -18.0403 191.733C-61.6485 158.357 -43.1468 59.8231 23.2845 -28.3495C89.7158 -116.522 178.921 -160.944 222.529 -127.568Z" fill="#DB29DF"/>
</g>
</g>
<defs>
<filter id="filter0_b_3401_189" x="-22.1752" y="-22.1752" width="408.35" height="278.35" filterUnits="userSpaceOnUse" color-interpolation-filters="sRGB">
<feFlood flood-opacity="0" result="BackgroundImageFix"/>
<feGaussianBlur in="BackgroundImageFix" stdDeviation="11.4545"/>
<feComposite in2="SourceAlpha" operator="in" result="effect1_backgroundBlur_3401_189"/>
<feBlend mode="normal" in="SourceGraphic" in2="effect1_backgroundBlur_3401_189" result="shape"/>
</filter>
<filter id="filter1_f_3401_189" x="71.9516" y="-132.309" width="467.422" height="350.814" filterUnits="userSpaceOnUse" color-interpolation-filters="sRGB">
<feFlood flood-opacity="0" result="BackgroundImageFix"/>
<feBlend mode="normal" in="SourceGraphic" in2="BackgroundImageFix" result="shape"/>
<feGaussianBlur stdDeviation="27.9144" result="effect1_foregroundBlur_3401_189"/>
</filter>
<filter id="filter2_f_3401_189" x="-97.4861" y="-194.498" width="399.461" height="453.16" filterUnits="userSpaceOnUse" color-interpolation-filters="sRGB">
<feFlood flood-opacity="0" result="BackgroundImageFix"/>
<feBlend mode="normal" in="SourceGraphic" in2="BackgroundImageFix" result="shape"/>
<feGaussianBlur stdDeviation="27.9144" result="effect1_foregroundBlur_3401_189"/>
</filter>
<linearGradient id="paint0_linear_3401_189" x1="2" y1="2" x2="130.405" y2="324.275" gradientUnits="userSpaceOnUse">
<stop stop-color="#BC61E8" stop-opacity="0.4"/>
<stop offset="1" stop-color="#9836C6" stop-opacity="0"/>
</linearGradient>
<radialGradient id="paint1_radial_3401_189" cx="0" cy="0" r="1" gradientUnits="userSpaceOnUse" gradientTransform="translate(2 2) rotate(32.5741) scale(427.2 269.348)">
<stop stop-color="white" stop-opacity="0.7"/>
<stop offset="0.677083" stop-color="#B691FF" stop-opacity="0.4"/>
<stop offset="1" stop-color="white" stop-opacity="0"/>
</radialGradient>
<linearGradient id="paint2_linear_3401_189" x1="351.951" y1="228.167" x2="316.94" y2="84.1868" gradientUnits="userSpaceOnUse">
<stop stop-color="#8E41B3" stop-opacity="0.32"/>
<stop offset="0.140625" stop-color="#F9FFF5"/>
<stop offset="1" stop-color="white" stop-opacity="0"/>
</linearGradient>
<linearGradient id="paint3_linear_3401_189" x1="357.631" y1="3.74243" x2="323.401" y2="148.648" gradientUnits="userSpaceOnUse">
<stop stop-color="#E3B8F8"/>
<stop offset="1" stop-color="#B225F4" stop-opacity="0"/>
</linearGradient>
</defs>
</svg>
