<svg width="41" height="32" viewBox="0 0 41 32" fill="none" xmlns="http://www.w3.org/2000/svg">
<g clip-path="url(#clip0_3403_200)">
<path d="M0 0H41V32H0V0Z" fill="#8A05BE"/>
<path d="M30.2654 18.5325C30.2654 19.0393 29.4905 19.6624 28.8603 19.6624H28.2866C28.2872 16.5604 28.2872 13.0829 28.2866 12.4656C28.2863 12.4473 28.2907 12.4292 28.2994 12.4122C28.3082 12.3953 28.3211 12.3798 28.3375 12.3668C28.354 12.3538 28.3735 12.3434 28.3951 12.3362C28.4166 12.3291 28.4398 12.3253 28.4632 12.3252H30.0879C30.1855 12.3252 30.2655 12.3891 30.2655 12.4667V18.5325H30.2654ZM27.6178 20.7509C27.6178 21.0717 27.4166 21.6092 26.0692 21.6092C23.4581 21.6092 21.8552 20.0125 21.8552 18.8674C21.8552 18.8674 21.8523 15.1648 21.8523 12.4668C21.8521 12.4485 21.8564 12.4303 21.8652 12.4133C21.874 12.3963 21.8869 12.3809 21.9034 12.3678C21.9198 12.3548 21.9394 12.3444 21.961 12.3373C21.9826 12.3302 22.0058 12.3265 22.0293 12.3264H23.656C23.7537 12.3264 23.8339 12.3899 23.8339 12.4679V18.4172C23.8339 19.4001 24.8306 20.1974 26.0594 20.1974H27.6186L27.6178 20.7509ZM30.2113 11.7917H28.3396C27.9417 11.7917 27.6176 12.0511 27.6176 12.3693V19.663H26.0582C25.1979 19.663 24.5006 19.1051 24.5006 18.417V12.3693C24.5006 12.0503 24.177 11.7914 23.7782 11.7914H21.9058C21.5071 11.7914 21.1835 12.0503 21.1829 12.3693C21.1819 15.0063 21.1858 18.8675 21.1858 18.8675C21.1861 20.8971 24.0299 22.1433 26.0687 22.1433C27.4363 22.1433 28.2857 21.6086 28.2857 20.7472V20.1973H28.8601C29.8676 20.1973 30.9333 19.3417 30.9333 18.5325V12.3693C30.9343 12.0503 30.6107 11.7914 30.2113 11.7914V11.7917H30.2113ZM19.1496 19.5333C19.1499 19.5516 19.1455 19.5697 19.1367 19.5867C19.1279 19.6036 19.1149 19.619 19.0985 19.6321C19.0821 19.6451 19.0625 19.6554 19.0409 19.6625C19.0193 19.6696 18.9961 19.6733 18.9727 19.6734H17.346C17.2471 19.6734 17.1677 19.6094 17.1682 19.5322V13.5829C17.1682 12.6 16.1711 11.8027 14.9427 11.8027H13.3833V11.2492C13.3833 10.929 13.5844 10.3909 14.9318 10.3909C17.543 10.3909 19.1464 11.9874 19.1464 13.1326C19.1464 13.1326 19.1493 16.8532 19.1493 19.5332H19.1496V19.5333ZM10.9123 19.6747C10.8133 19.6724 10.7342 19.6101 10.7353 19.5329V13.4682C10.7353 12.9613 11.5103 12.3374 12.1402 12.3374H12.7145C12.7136 16.7795 12.7136 19.0525 12.7145 19.5326C12.715 19.5697 12.6966 19.6054 12.6633 19.632C12.6301 19.6585 12.5848 19.6737 12.5373 19.6742H10.9126L10.9123 19.6747ZM19.814 13.1327C19.8144 11.1029 16.9705 9.85669 14.9319 9.85669C13.564 9.85669 12.7145 10.3913 12.7145 11.2528V11.8027H12.1405C11.1326 11.8027 10.0669 12.6583 10.0669 13.4676V19.6307C10.0669 19.9497 10.3905 20.2086 10.789 20.2086H12.6603C12.6719 20.2086 12.6819 20.2062 12.6935 20.2062C13.076 20.1918 13.3823 19.9404 13.3823 19.6307V12.337H14.942C15.8019 12.337 16.4995 12.8949 16.4995 13.583V19.6308C16.4995 19.9498 16.8232 20.2087 17.2217 20.2087H19.0945C19.4932 20.2087 19.8166 19.9505 19.8166 19.6308C19.818 16.9445 19.8143 13.1325 19.8143 13.1325L19.814 13.1327Z" fill="white"/>
</g>
<defs>
<clipPath id="clip0_3403_200">
<rect width="41" height="32" fill="white"/>
</clipPath>
</defs>
</svg>
